<svg xmlns="http://www.w3.org/2000/svg" xmlns:xlink="http://www.w3.org/1999/xlink" xmlns:lucid="lucid" width="512" height="512"><g transform="translate(0 0)" lucid:page-tab-id="0_0"><path d="M0 166.12V46.34h40v119.78zM0 166.12h40V290.5H0zM0 290.5h40v115.87H0zM40 512H0V406.37h40z" stroke="#979ea8" fill="#3fb8b9"/><path d="M40 46.34h472v119.78H40zM40 166.12h472V290.5H40zM40 290.5h472v115.87H40zM512 406.37V512H40V406.37z" stroke="#979ea8" fill="none"/><use xlink:href="#a" transform="matrix(-1.8369701987210297e-16,-1,1,-1.8369701987210297e-16,1.4210854715202004e-14,166.1157614649796) translate(29.693588461235613 22.574703989133965)"/><use xlink:href="#b" transform="matrix(-1.8369701987210297e-16,-1,1,-1.8369701987210297e-16,0,290.50459877660353) translate(21.501414950804282 22.574703989133965)"/><use xlink:href="#c" transform="matrix(-1.8369701987210297e-16,-1,1,-1.8369701987210297e-16,0,406.366278287632) translate(39.81615307674137 22.574703989133965)"/><use xlink:href="#d" transform="matrix(-1.8369701987210297e-16,-1,1,-1.8369701987210297e-16,0,512) translate(20.869839802265723 22.574703989133965)"/><path d="M46.34 209.48a8 8 0 0 1 8-8h99.87a8 8 0 0 1 8 8v67.14c-19.34-12.55-31.4-12.55-38.7-12.55-11.58 0-27 12.55-38.57 12.55-7.2 0-19.35 0-38.6-12.55z" stroke="#000" stroke-opacity="0" stroke-width="2" fill="#259b9c"/><use xlink:href="#e" transform="matrix(1,0,0,1,51.905671804411405,207.03708722855126) translate(21.117219154667108 15.19705276522869)"/><use xlink:href="#f" transform="matrix(1,0,0,1,51.905671804411405,207.03708722855126) translate(53.67292070616102 15.19705276522869)"/><use xlink:href="#g" transform="matrix(1,0,0,1,51.905671804411405,207.03708722855126) translate(59.938033746387006 15.19705276522869)"/><use xlink:href="#h" transform="matrix(1,0,0,1,51.905671804411405,207.03708722855126) translate(23.348629278583214 32.49906357220894)"/><use xlink:href="#i" transform="matrix(1,0,0,1,51.905671804411405,207.03708722855126) translate(64.48667746052368 32.49906357220894)"/><use xlink:href="#j" transform="matrix(1,0,0,1,51.905671804411405,207.03708722855126) translate(19.658220227491196 49.80107437918919)"/><path d="M208.55 211.9a8 8 0 0 1 8-8h99.86a8 8 0 0 1 8 8v54.3a8 8 0 0 1-8 8h-99.85a8 8 0 0 1-8-8z" stroke="#000" stroke-opacity="0" stroke-width="2" fill="#259b9c"/><use xlink:href="#k" transform="matrix(1,0,0,1,214.11202311985122,209.45244898195895) translate(28.526645078952637 15.69705276522869)"/><use xlink:href="#l" transform="matrix(1,0,0,1,214.11202311985122,209.45244898195895) translate(73.06902409097023 15.69705276522869)"/><use xlink:href="#m" transform="matrix(1,0,0,1,214.11202311985122,209.45244898195895) translate(15.381350823318666 28.05563191307173)"/><use xlink:href="#n" transform="matrix(1,0,0,1,214.11202311985122,209.45244898195895) translate(51.34138320488971 28.05563191307173)"/><use xlink:href="#i" transform="matrix(1,0,0,1,214.11202311985122,209.45244898195895) translate(43.91765336955345 40.41421106091477)"/><use xlink:href="#o" transform="matrix(1,0,0,1,214.11202311985122,209.45244898195895) translate(19.658220227491196 52.7727902087578)"/><path d="M278.07 454.07a8 8 0 0 1 8-8h169.38a8 8 0 0 1 8 8v43.13a8 8 0 0 1-8 8H286.07a8 8 0 0 1-8-8z" stroke="#000" stroke-opacity="0" stroke-width="2" fill="#58d6d7"/><use xlink:href="#p" transform="matrix(1,0,0,1,283.62903082646824,451.62846611744163) translate(36.1060475946759 15.00955276522869)"/><use xlink:href="#q" transform="matrix(1,0,0,1,283.62903082646824,451.62846611744163) translate(79.47550590053247 15.00955276522869)"/><use xlink:href="#f" transform="matrix(1,0,0,1,283.62903082646824,451.62846611744163) translate(100.64529425563396 15.00955276522869)"/><use xlink:href="#r" transform="matrix(1,0,0,1,283.62903082646824,451.62846611744163) translate(106.91040729585994 15.00955276522869)"/><use xlink:href="#s" transform="matrix(1,0,0,1,283.62903082646824,451.62846611744163) translate(131.48452648103859 15.00955276522869)"/><use xlink:href="#t" transform="matrix(1,0,0,1,283.62903082646824,451.62846611744163) translate(15.208033549538552 27.36813191307173)"/><use xlink:href="#u" transform="matrix(1,0,0,1,283.62903082646824,451.62846611744163) translate(62.039038329675236 27.36813191307173)"/><use xlink:href="#v" transform="matrix(1,0,0,1,283.62903082646824,451.62846611744163) translate(85.44023680869283 27.36813191307173)"/><use xlink:href="#w" transform="matrix(1,0,0,1,283.62903082646824,451.62846611744163) translate(102.60493006958593 27.36813191307173)"/><use xlink:href="#x" transform="matrix(1,0,0,1,283.62903082646824,451.62846611744163) translate(147.80528898993776 27.36813191307173)"/><use xlink:href="#y" transform="matrix(1,0,0,1,283.62903082646824,451.62846611744163) translate(55.18746493636874 39.72671106091476)"/><use xlink:href="#z" transform="matrix(1,0,0,1,283.62903082646824,451.62846611744163) translate(74.64078396538092 39.72671106091476)"/><use xlink:href="#v" transform="matrix(1,0,0,1,283.62903082646824,451.62846611744163) translate(85.48314854184505 39.72671106091476)"/><use xlink:href="#A" transform="matrix(1,0,0,1,283.62903082646824,451.62846611744163) translate(102.64784180273816 39.72671106091476)"/><path d="M200.9 332.4a8 8 0 0 1 8-8h115.17a8 8 0 0 1 8 8v57.76a8 8 0 0 1-8 8H208.9a8 8 0 0 1-8-8z" stroke="#000" stroke-opacity="0" stroke-width="2" fill="#3fb8b9"/><g><use xlink:href="#B" transform="matrix(1,0,0,1,206.45641256975824,329.9737026308796) translate(13.883553885624483 27.69705276522869)"/><use xlink:href="#C" transform="matrix(1,0,0,1,206.45641256975824,329.9737026308796) translate(63.089007900184704 27.69705276522869)"/><use xlink:href="#f" transform="matrix(1,0,0,1,206.45641256975824,329.9737026308796) translate(24.511359796327465 40.05563191307172)"/><use xlink:href="#r" transform="matrix(1,0,0,1,206.45641256975824,329.9737026308796) translate(30.776472836553445 40.05563191307172)"/><use xlink:href="#D" transform="matrix(1,0,0,1,206.45641256975824,329.9737026308796) translate(55.35059202173207 40.05563191307172)"/><use xlink:href="#E" transform="matrix(1,0,0,1,206.45641256975824,329.9737026308796) translate(65.62080015616644 40.05563191307172)"/></g><path d="M-37.8 8a8 8 0 0 1 8-8h594.77a8 8 0 0 1 8 8v37.2a8 8 0 0 1-8 8H-29.8a8 8 0 0 1-8-8z" stroke="#000" stroke-opacity="0" stroke-width="2" fill="#fff" fill-opacity="0"/><g><use xlink:href="#F" transform="matrix(1,0,0,1,-32.79672110047409,5) translate(243.4092448647159 26.154043759411813)"/><use xlink:href="#G" transform="matrix(1,0,0,1,-32.79672110047409,5) translate(283.97788284564126 26.154043759411813)"/></g><path d="M162.7 239.05h29.47" stroke="#979ea8" fill="none"/><path d="M162.72 239.52h-.5v-.95h.5z" stroke="#979ea8" stroke-width=".05" fill="#979ea8"/><path d="M206.93 239.05l-14.26 4.63v-9.27z" stroke="#979ea8" fill="#979ea8"/><path d="M266.48 274.7v33.33" stroke="#979ea8" fill="none"/><path d="M266.96 274.7H266v-.5h.96z" stroke="#979ea8" stroke-width=".05" fill="#979ea8"/><path d="M266.48 322.8l-4.63-14.27h9.27z" stroke="#979ea8" fill="#979ea8"/><path d="M266.48 398.66v11.45a12 12 0 0 0 12 12h84.7a7.57 7.57 0 0 1 7.58 7.58" stroke="#979ea8" fill="none"/><path d="M266.96 398.67H266v-.5h.96z" stroke="#979ea8" stroke-width=".05" fill="#979ea8"/><path d="M370.76 444.45l-4.64-14.27h9.27z" stroke="#979ea8" fill="#979ea8"/><path d="M315.58 71.4c17.68 0 32 17.9 32 40s-14.32 40-32 40h-96c-17.67 0-32-17.9-32-40s14.33-40 32-40z" stroke="#000" stroke-opacity="0" stroke-width="2" fill="#0c7c7d"/><g><use xlink:href="#e" transform="matrix(1,0,0,1,192.58503853308525,76.4006815326287) translate(13.579005948104179 31.63455276522869)"/><use xlink:href="#f" transform="matrix(1,0,0,1,192.58503853308525,76.4006815326287) translate(46.13470749959809 31.63455276522869)"/><use xlink:href="#H" transform="matrix(1,0,0,1,192.58503853308525,76.4006815326287) translate(52.39982053982408 31.63455276522869)"/><use xlink:href="#I" transform="matrix(1,0,0,1,192.58503853308525,76.4006815326287) translate(92.99432010183627 31.63455276522869)"/><use xlink:href="#J" transform="matrix(1,0,0,1,192.58503853308525,76.4006815326287) translate(115.88057778302706 31.63455276522869)"/><use xlink:href="#v" transform="matrix(1,0,0,1,192.58503853308525,76.4006815326287) translate(48.99548970974695 43.99313191307172)"/><use xlink:href="#K" transform="matrix(1,0,0,1,192.58503853308525,76.4006815326287) translate(66.16018297064005 43.99313191307172)"/></g><path d="M187.1 111.4h-70.82a12 12 0 0 0-12 12v61.7" stroke="#666" fill="none"/><path d="M187.6 111.4v.48h-.53v-.95h.55z" stroke="#666" stroke-width=".05" fill="#666"/><path d="M104.28 199.86l-4.64-14.27h9.27z" stroke="#666" fill="#666"/><defs><path fill="#fff" d="M24 0v-248h195v40H76v63h132v40H76v65h150V0H24" id="L"/><path fill="#fff" d="M182 0l-62-99L58 0H3l86-130-79-118h55l55 88 55-88h55l-75 118L237 0h-55" id="M"/><path fill="#fff" d="M136-208V0H84v-208H4v-40h212v40h-80" id="N"/><path fill="#fff" d="M240-174c0 40-23 61-54 70L253 0h-59l-57-94H76V0H24v-248c93 4 217-23 216 74zM76-134c48-2 112 12 112-38 0-48-66-32-112-35v73" id="O"/><path fill="#fff" d="M199 0l-22-63H83L61 0H9l90-248h61L250 0h-51zm-33-102l-36-108c-10 38-24 72-36 108h72" id="P"/><path fill="#fff" d="M67-125c0 53 21 87 73 88 37 1 54-22 65-47l45 17C233-25 199 4 140 4 58 4 20-42 15-125 8-235 124-281 211-232c18 10 29 29 36 50l-46 12c-8-25-30-41-62-41-52 0-71 34-72 86" id="Q"/><g id="a"><use transform="matrix(0.03575977762686063,0,0,0.03575977762686063,0,0)" xlink:href="#L"/><use transform="matrix(0.03575977762686063,0,0,0.03575977762686063,8.582346630446551,0)" xlink:href="#M"/><use transform="matrix(0.03575977762686063,0,0,0.03575977762686063,17.164693260893102,0)" xlink:href="#N"/><use transform="matrix(0.03575977762686063,0,0,0.03575977762686063,24.996084561175582,0)" xlink:href="#O"/><use transform="matrix(0.03575977762686063,0,0,0.03575977762686063,34.25786696653249,0)" xlink:href="#P"/><use transform="matrix(0.03575977762686063,0,0,0.03575977762686063,43.519649371889386,0)" xlink:href="#Q"/><use transform="matrix(0.03575977762686063,0,0,0.03575977762686063,52.78143177724629,0)" xlink:href="#N"/></g><path fill="#fff" d="M175 0L67-191c6 58 2 128 3 191H24v-248h59L193-55c-6-58-2-129-3-193h46V0h-61" id="R"/><path fill="#fff" d="M169-182c-1-43-94-46-97-3 18 66 151 10 154 114 3 95-165 93-204 36-6-8-10-19-12-30l50-8c3 46 112 56 116 5-17-69-150-10-154-114-4-87 153-88 188-35 5 8 8 18 10 28" id="S"/><path fill="#fff" d="M76-208v77h127v40H76V0H24v-248h183v40H76" id="T"/><path fill="#fff" d="M140-251c80 0 125 45 125 126S219 4 139 4C58 4 15-44 15-125s44-126 125-126zm-1 214c52 0 73-35 73-88 0-50-21-86-72-86-52 0-73 35-73 86s22 88 72 88" id="U"/><path fill="#fff" d="M230 0l2-204L168 0h-37L68-204 70 0H24v-248h70l56 185 57-185h69V0h-46" id="V"/><g id="b"><use transform="matrix(0.03575977762686063,0,0,0.03575977762686063,0,0)" xlink:href="#N"/><use transform="matrix(0.03575977762686063,0,0,0.03575977762686063,7.831391300282479,0)" xlink:href="#O"/><use transform="matrix(0.03575977762686063,0,0,0.03575977762686063,17.093173705639384,0)" xlink:href="#P"/><use transform="matrix(0.03575977762686063,0,0,0.03575977762686063,26.354956110996287,0)" xlink:href="#R"/><use transform="matrix(0.03575977762686063,0,0,0.03575977762686063,35.616738516353195,0)" xlink:href="#S"/><use transform="matrix(0.03575977762686063,0,0,0.03575977762686063,44.19908514679975,0)" xlink:href="#T"/><use transform="matrix(0.03575977762686063,0,0,0.03575977762686063,52.03047644708222,0)" xlink:href="#U"/><use transform="matrix(0.03575977762686063,0,0,0.03575977762686063,62.043214182603194,0)" xlink:href="#O"/><use transform="matrix(0.03575977762686063,0,0,0.03575977762686063,71.3049965879601,0)" xlink:href="#V"/></g><path fill="#fff" d="M24 0v-248h52v208h133V0H24" id="W"/><path fill="#fff" d="M24-248c120-7 223 5 221 122C244-46 201 0 124 0H24v-248zM76-40c74 7 117-18 117-86 0-67-45-88-117-82v168" id="X"/><g id="c"><use transform="matrix(0.03575977762686063,0,0,0.03575977762686063,0,0)" xlink:href="#W"/><use transform="matrix(0.03575977762686063,0,0,0.03575977762686063,7.831391300282479,0)" xlink:href="#U"/><use transform="matrix(0.03575977762686063,0,0,0.03575977762686063,17.844129035803455,0)" xlink:href="#P"/><use transform="matrix(0.03575977762686063,0,0,0.03575977762686063,27.10591144116036,0)" xlink:href="#X"/></g><path fill="#fff" d="M24 0v-248h52V0H24" id="Y"/><path fill="#fff" d="M147 0H94L2-248h55l64 206c17-72 42-137 63-206h54" id="Z"/><g id="d"><use transform="matrix(0.03575977762686063,0,0,0.03575977762686063,0,0)" xlink:href="#O"/><use transform="matrix(0.03575977762686063,0,0,0.03575977762686063,9.261782405356904,0)" xlink:href="#L"/><use transform="matrix(0.03575977762686063,0,0,0.03575977762686063,17.844129035803455,0)" xlink:href="#N"/><use transform="matrix(0.03575977762686063,0,0,0.03575977762686063,25.675520336085935,0)" xlink:href="#O"/><use transform="matrix(0.03575977762686063,0,0,0.03575977762686063,34.937302741442835,0)" xlink:href="#Y"/><use transform="matrix(0.03575977762686063,0,0,0.03575977762686063,38.5132805041289,0)" xlink:href="#L"/><use transform="matrix(0.03575977762686063,0,0,0.03575977762686063,47.09562713457545,0)" xlink:href="#Z"/><use transform="matrix(0.03575977762686063,0,0,0.03575977762686063,55.677973765022,0)" xlink:href="#L"/></g><path fill="#fff" d="M185-189c-5-48-123-54-124 2 14 75 158 14 163 119 3 78-121 87-175 55-17-10-28-26-33-46l33-7c5 56 141 63 141-1 0-78-155-14-162-118-5-82 145-84 179-34 5 7 8 16 11 25" id="aa"/><path fill="#fff" d="M115-194c55 1 70 41 70 98S169 2 115 4C84 4 66-9 55-30l1 105H24l-1-265h31l2 30c10-21 28-34 59-34zm-8 174c40 0 45-34 45-75s-6-73-45-74c-42 0-51 32-51 76 0 43 10 73 51 73" id="ab"/><path fill="#fff" d="M24-231v-30h32v30H24zM24 0v-190h32V0H24" id="ac"/><path fill="#fff" d="M85-194c31 0 48 13 60 33l-1-100h32l1 261h-30c-2-10 0-23-3-31C134-8 116 4 85 4 32 4 16-35 15-94c0-66 23-100 70-100zm9 24c-40 0-46 34-46 75 0 40 6 74 45 74 42 0 51-32 51-76 0-42-9-74-50-73" id="ad"/><path fill="#fff" d="M100-194c63 0 86 42 84 106H49c0 40 14 67 53 68 26 1 43-12 49-29l28 8c-11 28-37 45-77 45C44 4 14-33 15-96c1-61 26-98 85-98zm52 81c6-60-76-77-97-28-3 7-6 17-6 28h103" id="ae"/><path fill="#fff" d="M114-163C36-179 61-72 57 0H25l-1-190h30c1 12-1 29 2 39 6-27 23-49 58-41v29" id="af"/><g id="e"><use transform="matrix(0.028607822101488503,0,0,0.028607822101488503,0,0)" xlink:href="#aa"/><use transform="matrix(0.028607822101488503,0,0,0.028607822101488503,6.865877304357241,0)" xlink:href="#ab"/><use transform="matrix(0.028607822101488503,0,0,0.028607822101488503,12.58744172465494,0)" xlink:href="#ac"/><use transform="matrix(0.028607822101488503,0,0,0.028607822101488503,14.84745967067253,0)" xlink:href="#ad"/><use transform="matrix(0.028607822101488503,0,0,0.028607822101488503,20.56902409097023,0)" xlink:href="#ae"/><use transform="matrix(0.028607822101488503,0,0,0.028607822101488503,26.29058851126793,0)" xlink:href="#af"/></g><path fill="#fff" d="M16-82v-28h88v28H16" id="ag"/><use transform="matrix(0.028607822101488503,0,0,0.028607822101488503,0,0)" xlink:href="#ag" id="f"/><path fill="#fff" d="M33 0v-248h34V0H33" id="ah"/><path fill="#fff" d="M117-194c89-4 53 116 60 194h-32v-121c0-31-8-49-39-48C34-167 62-67 57 0H25l-1-190h30c1 10-1 24 2 32 11-22 29-35 61-36" id="ai"/><path fill="#fff" d="M59-47c-2 24 18 29 38 22v24C64 9 27 4 27-40v-127H5v-23h24l9-43h21v43h35v23H59v120" id="aj"/><path fill="#fff" d="M141-36C126-15 110 5 73 4 37 3 15-17 15-53c-1-64 63-63 125-63 3-35-9-54-41-54-24 1-41 7-42 31l-33-3c5-37 33-52 76-52 45 0 72 20 72 64v82c-1 20 7 32 28 27v20c-31 9-61-2-59-35zM48-53c0 20 12 33 32 33 41-3 63-29 60-74-43 2-92-5-92 41" id="ak"/><path fill="#fff" d="M24 0v-261h32V0H24" id="al"/><g id="g"><use transform="matrix(0.028607822101488503,0,0,0.028607822101488503,0,0)" xlink:href="#ah"/><use transform="matrix(0.028607822101488503,0,0,0.028607822101488503,2.8607822101488503,0)" xlink:href="#ai"/><use transform="matrix(0.028607822101488503,0,0,0.028607822101488503,8.582346630446551,0)" xlink:href="#ac"/><use transform="matrix(0.028607822101488503,0,0,0.028607822101488503,10.842364576464142,0)" xlink:href="#aj"/><use transform="matrix(0.028607822101488503,0,0,0.028607822101488503,13.703146786612992,0)" xlink:href="#ac"/><use transform="matrix(0.028607822101488503,0,0,0.028607822101488503,15.963164732630585,0)" xlink:href="#ak"/><use transform="matrix(0.028607822101488503,0,0,0.028607822101488503,21.684729152928284,0)" xlink:href="#al"/></g><path fill="#fff" d="M96-169c-40 0-48 33-48 73s9 75 48 75c24 0 41-14 43-38l32 2c-6 37-31 61-74 61-59 0-76-41-82-99-10-93 101-131 147-64 4 7 5 14 7 22l-32 3c-4-21-16-35-41-35" id="am"/><path fill="#fff" d="M177-190C167-65 218 103 67 71c-23-6-38-20-44-43l32-5c15 47 100 32 89-28v-30C133-14 115 1 83 1 29 1 15-40 15-95c0-56 16-97 71-98 29-1 48 16 59 35 1-10 0-23 2-32h30zM94-22c36 0 50-32 50-73 0-42-14-75-50-75-39 0-46 34-46 75s6 73 46 73" id="an"/><g id="h"><use transform="matrix(0.028607822101488503,0,0,0.028607822101488503,0,0)" xlink:href="#am"/><use transform="matrix(0.028607822101488503,0,0,0.028607822101488503,5.149407978267931,0)" xlink:href="#al"/><use transform="matrix(0.028607822101488503,0,0,0.028607822101488503,7.4094259242855225,0)" xlink:href="#ae"/><use transform="matrix(0.028607822101488503,0,0,0.028607822101488503,13.130990344583223,0)" xlink:href="#ak"/><use transform="matrix(0.028607822101488503,0,0,0.028607822101488503,18.852554764880924,0)" xlink:href="#ai"/><use transform="matrix(0.028607822101488503,0,0,0.028607822101488503,24.574119185178624,0)" xlink:href="#ac"/><use transform="matrix(0.028607822101488503,0,0,0.028607822101488503,26.834137131196215,0)" xlink:href="#ai"/><use transform="matrix(0.028607822101488503,0,0,0.028607822101488503,32.55570155149392,0)" xlink:href="#an"/></g><g id="i"><use transform="matrix(0.028607822101488503,0,0,0.028607822101488503,0,0)" xlink:href="#ak"/><use transform="matrix(0.028607822101488503,0,0,0.028607822101488503,5.7215644202977005,0)" xlink:href="#ai"/><use transform="matrix(0.028607822101488503,0,0,0.028607822101488503,11.443128840595401,0)" xlink:href="#ad"/></g><path fill="#fff" d="M135-143c-3-34-86-38-87 0 15 53 115 12 119 90S17 21 10-45l28-5c4 36 97 45 98 0-10-56-113-15-118-90-4-57 82-63 122-42 12 7 21 19 24 35" id="ao"/><path fill="#fff" d="M101-234c-31-9-42 10-38 44h38v23H63V0H32v-167H5v-23h27c-7-52 17-82 69-68v24" id="ap"/><path fill="#fff" d="M100-194c62-1 85 37 85 99 1 63-27 99-86 99S16-35 15-95c0-66 28-99 85-99zM99-20c44 1 53-31 53-75 0-43-8-75-51-75s-53 32-53 75 10 74 51 75" id="aq"/><path fill="#fff" d="M210-169c-67 3-38 105-44 169h-31v-121c0-29-5-50-35-48C34-165 62-65 56 0H25l-1-190h30c1 10-1 24 2 32 10-44 99-50 107 0 11-21 27-35 58-36 85-2 47 119 55 194h-31v-121c0-29-5-49-35-48" id="ar"/><g id="j"><use transform="matrix(0.028607822101488503,0,0,0.028607822101488503,0,0)" xlink:href="#aj"/><use transform="matrix(0.028607822101488503,0,0,0.028607822101488503,2.8607822101488503,0)" xlink:href="#af"/><use transform="matrix(0.028607822101488503,0,0,0.028607822101488503,6.265113040225982,0)" xlink:href="#ak"/><use transform="matrix(0.028607822101488503,0,0,0.028607822101488503,11.986677460523683,0)" xlink:href="#ai"/><use transform="matrix(0.028607822101488503,0,0,0.028607822101488503,17.708241880821383,0)" xlink:href="#ao"/><use transform="matrix(0.028607822101488503,0,0,0.028607822101488503,22.857649859089314,0)" xlink:href="#ap"/><use transform="matrix(0.028607822101488503,0,0,0.028607822101488503,25.718432069238165,0)" xlink:href="#aq"/><use transform="matrix(0.028607822101488503,0,0,0.028607822101488503,31.439996489535865,0)" xlink:href="#af"/><use transform="matrix(0.028607822101488503,0,0,0.028607822101488503,34.844327319612994,0)" xlink:href="#ar"/><use transform="matrix(0.028607822101488503,0,0,0.028607822101488503,43.39806612795806,0)" xlink:href="#ak"/><use transform="matrix(0.028607822101488503,0,0,0.028607822101488503,49.11963054825576,0)" xlink:href="#aj"/><use transform="matrix(0.028607822101488503,0,0,0.028607822101488503,51.98041275840461,0)" xlink:href="#ac"/><use transform="matrix(0.028607822101488503,0,0,0.028607822101488503,54.2404307044222,0)" xlink:href="#aq"/><use transform="matrix(0.028607822101488503,0,0,0.028607822101488503,59.961995124719905,0)" xlink:href="#ai"/></g><path fill="#fff" d="M30-248c87 1 191-15 191 75 0 78-77 80-158 76V0H30v-248zm33 125c57 0 124 11 124-50 0-59-68-47-124-48v98" id="as"/><g id="k"><use transform="matrix(0.028607822101488503,0,0,0.028607822101488503,0,0)" xlink:href="#as"/><use transform="matrix(0.028607822101488503,0,0,0.028607822101488503,6.865877304357241,0)" xlink:href="#ac"/><use transform="matrix(0.028607822101488503,0,0,0.028607822101488503,9.125895250374832,0)" xlink:href="#ab"/><use transform="matrix(0.028607822101488503,0,0,0.028607822101488503,14.84745967067253,0)" xlink:href="#ae"/><use transform="matrix(0.028607822101488503,0,0,0.028607822101488503,20.56902409097023,0)" xlink:href="#al"/><use transform="matrix(0.028607822101488503,0,0,0.028607822101488503,22.829042036987822,0)" xlink:href="#ac"/><use transform="matrix(0.028607822101488503,0,0,0.028607822101488503,25.089059983005413,0)" xlink:href="#ai"/><use transform="matrix(0.028607822101488503,0,0,0.028607822101488503,30.810624403303112,0)" xlink:href="#ae"/><use transform="matrix(0.028607822101488503,0,0,0.028607822101488503,36.53218882360081,0)" xlink:href="#ao"/></g><use transform="matrix(0.028607822101488503,0,0,0.028607822101488503,0,0)" xlink:href="#ag" id="l"/><path fill="#fff" d="M63-220v92h138v28H63V0H30v-248h175v28H63" id="at"/><path fill="#fff" d="M84 4C-5 8 30-112 23-190h32v120c0 31 7 50 39 49 72-2 45-101 50-169h31l1 190h-30c-1-10 1-25-2-33-11 22-28 36-60 37" id="au"/><path fill="#fff" d="M106-169C34-169 62-67 57 0H25v-261h32l-1 103c12-21 28-36 61-36 89 0 53 116 60 194h-32v-121c2-32-8-49-39-48" id="av"/><g id="m"><use transform="matrix(0.028607822101488503,0,0,0.028607822101488503,0,0)" xlink:href="#at"/><use transform="matrix(0.028607822101488503,0,0,0.028607822101488503,6.265113040225982,0)" xlink:href="#au"/><use transform="matrix(0.028607822101488503,0,0,0.028607822101488503,11.986677460523683,0)" xlink:href="#af"/><use transform="matrix(0.028607822101488503,0,0,0.028607822101488503,15.391008290600814,0)" xlink:href="#aj"/><use transform="matrix(0.028607822101488503,0,0,0.028607822101488503,18.251790500749667,0)" xlink:href="#av"/><use transform="matrix(0.028607822101488503,0,0,0.028607822101488503,23.973354921047367,0)" xlink:href="#ae"/><use transform="matrix(0.028607822101488503,0,0,0.028607822101488503,29.694919341345066,0)" xlink:href="#af"/></g><g id="n"><use transform="matrix(0.028607822101488503,0,0,0.028607822101488503,0,0)" xlink:href="#am"/><use transform="matrix(0.028607822101488503,0,0,0.028607822101488503,5.149407978267931,0)" xlink:href="#al"/><use transform="matrix(0.028607822101488503,0,0,0.028607822101488503,7.4094259242855225,0)" xlink:href="#ae"/><use transform="matrix(0.028607822101488503,0,0,0.028607822101488503,13.130990344583223,0)" xlink:href="#ak"/><use transform="matrix(0.028607822101488503,0,0,0.028607822101488503,18.852554764880924,0)" xlink:href="#ai"/><use transform="matrix(0.028607822101488503,0,0,0.028607822101488503,24.574119185178624,0)" xlink:href="#ac"/><use transform="matrix(0.028607822101488503,0,0,0.028607822101488503,26.834137131196215,0)" xlink:href="#ai"/><use transform="matrix(0.028607822101488503,0,0,0.028607822101488503,32.55570155149392,0)" xlink:href="#an"/></g><g id="o"><use transform="matrix(0.028607822101488503,0,0,0.028607822101488503,0,0)" xlink:href="#aj"/><use transform="matrix(0.028607822101488503,0,0,0.028607822101488503,2.8607822101488503,0)" xlink:href="#af"/><use transform="matrix(0.028607822101488503,0,0,0.028607822101488503,6.265113040225982,0)" xlink:href="#ak"/><use transform="matrix(0.028607822101488503,0,0,0.028607822101488503,11.986677460523683,0)" xlink:href="#ai"/><use transform="matrix(0.028607822101488503,0,0,0.028607822101488503,17.708241880821383,0)" xlink:href="#ao"/><use transform="matrix(0.028607822101488503,0,0,0.028607822101488503,22.857649859089314,0)" xlink:href="#ap"/><use transform="matrix(0.028607822101488503,0,0,0.028607822101488503,25.718432069238165,0)" xlink:href="#aq"/><use transform="matrix(0.028607822101488503,0,0,0.028607822101488503,31.439996489535865,0)" xlink:href="#af"/><use transform="matrix(0.028607822101488503,0,0,0.028607822101488503,34.844327319612994,0)" xlink:href="#ar"/><use transform="matrix(0.028607822101488503,0,0,0.028607822101488503,43.39806612795806,0)" xlink:href="#ak"/><use transform="matrix(0.028607822101488503,0,0,0.028607822101488503,49.11963054825576,0)" xlink:href="#aj"/><use transform="matrix(0.028607822101488503,0,0,0.028607822101488503,51.98041275840461,0)" xlink:href="#ac"/><use transform="matrix(0.028607822101488503,0,0,0.028607822101488503,54.2404307044222,0)" xlink:href="#aq"/><use transform="matrix(0.028607822101488503,0,0,0.028607822101488503,59.961995124719905,0)" xlink:href="#ai"/></g><g id="p"><use transform="matrix(0.028607822101488503,0,0,0.028607822101488503,0,0)" xlink:href="#aa"/><use transform="matrix(0.028607822101488503,0,0,0.028607822101488503,6.865877304357241,0)" xlink:href="#aj"/><use transform="matrix(0.028607822101488503,0,0,0.028607822101488503,9.72665951450609,0)" xlink:href="#af"/><use transform="matrix(0.028607822101488503,0,0,0.028607822101488503,13.130990344583223,0)" xlink:href="#ae"/><use transform="matrix(0.028607822101488503,0,0,0.028607822101488503,18.852554764880924,0)" xlink:href="#ak"/><use transform="matrix(0.028607822101488503,0,0,0.028607822101488503,24.574119185178624,0)" xlink:href="#ar"/><use transform="matrix(0.028607822101488503,0,0,0.028607822101488503,33.12785799352369,0)" xlink:href="#al"/><use transform="matrix(0.028607822101488503,0,0,0.028607822101488503,35.38787593954128,0)" xlink:href="#ac"/><use transform="matrix(0.028607822101488503,0,0,0.028607822101488503,37.64789388555887,0)" xlink:href="#aj"/></g><path fill="#fff" d="M205 0l-28-72H64L36 0H1l101-248h38L239 0h-34zm-38-99l-47-123c-12 45-31 82-46 123h93" id="aw"/><g id="q"><use transform="matrix(0.028607822101488503,0,0,0.028607822101488503,0,0)" xlink:href="#aw"/><use transform="matrix(0.028607822101488503,0,0,0.028607822101488503,6.865877304357241,0)" xlink:href="#ab"/><use transform="matrix(0.028607822101488503,0,0,0.028607822101488503,12.58744172465494,0)" xlink:href="#ab"/></g><path fill="#fff" d="M30-248c118-7 216 8 213 122C240-48 200 0 122 0H30v-248zM63-27c89 8 146-16 146-99s-60-101-146-95v194" id="ax"/><g id="r"><use transform="matrix(0.028607822101488503,0,0,0.028607822101488503,0,0)" xlink:href="#ax"/><use transform="matrix(0.028607822101488503,0,0,0.028607822101488503,7.4094259242855225,0)" xlink:href="#ak"/><use transform="matrix(0.028607822101488503,0,0,0.028607822101488503,13.130990344583223,0)" xlink:href="#aj"/><use transform="matrix(0.028607822101488503,0,0,0.028607822101488503,15.991772554732073,0)" xlink:href="#ak"/></g><g id="s"><use transform="matrix(0.028607822101488503,0,0,0.028607822101488503,0,0)" xlink:href="#ac"/><use transform="matrix(0.028607822101488503,0,0,0.028607822101488503,2.2600179460175918,0)" xlink:href="#ao"/></g><path fill="#fff" d="M233-177c-1 41-23 64-60 70L243 0h-38l-65-103H63V0H30v-248c88 3 205-21 203 71zM63-129c60-2 137 13 137-47 0-61-80-42-137-45v92" id="ay"/><path fill="#fff" d="M108 0H70L1-190h34L89-25l56-165h34" id="az"/><g id="t"><use transform="matrix(0.028607822101488503,0,0,0.028607822101488503,0,0)" xlink:href="#ay"/><use transform="matrix(0.028607822101488503,0,0,0.028607822101488503,7.4094259242855225,0)" xlink:href="#ae"/><use transform="matrix(0.028607822101488503,0,0,0.028607822101488503,13.130990344583223,0)" xlink:href="#aj"/><use transform="matrix(0.028607822101488503,0,0,0.028607822101488503,15.991772554732073,0)" xlink:href="#af"/><use transform="matrix(0.028607822101488503,0,0,0.028607822101488503,19.396103384809205,0)" xlink:href="#ac"/><use transform="matrix(0.028607822101488503,0,0,0.028607822101488503,21.656121330826796,0)" xlink:href="#ae"/><use transform="matrix(0.028607822101488503,0,0,0.028607822101488503,27.377685751124496,0)" xlink:href="#az"/><use transform="matrix(0.028607822101488503,0,0,0.028607822101488503,32.527093729392426,0)" xlink:href="#ae"/><use transform="matrix(0.028607822101488503,0,0,0.028607822101488503,38.24865814969013,0)" xlink:href="#ad"/></g><g id="u"><use transform="matrix(0.028607822101488503,0,0,0.028607822101488503,0,0)" xlink:href="#ap"/><use transform="matrix(0.028607822101488503,0,0,0.028607822101488503,2.8607822101488503,0)" xlink:href="#af"/><use transform="matrix(0.028607822101488503,0,0,0.028607822101488503,6.265113040225982,0)" xlink:href="#aq"/><use transform="matrix(0.028607822101488503,0,0,0.028607822101488503,11.986677460523683,0)" xlink:href="#ar"/></g><g id="v"><use transform="matrix(0.028607822101488503,0,0,0.028607822101488503,0,0)" xlink:href="#aj"/><use transform="matrix(0.028607822101488503,0,0,0.028607822101488503,2.8607822101488503,0)" xlink:href="#av"/><use transform="matrix(0.028607822101488503,0,0,0.028607822101488503,8.582346630446551,0)" xlink:href="#ae"/></g><path fill="#fff" d="M115-194c53 0 69 39 70 98 0 66-23 100-70 100C84 3 66-7 56-30L54 0H23l1-261h32v101c10-23 28-34 59-34zm-8 174c40 0 45-34 45-75 0-40-5-75-45-74-42 0-51 32-51 76 0 43 10 73 51 73" id="aA"/><g id="w"><use transform="matrix(0.028607822101488503,0,0,0.028607822101488503,0,0)" xlink:href="#ad"/><use transform="matrix(0.028607822101488503,0,0,0.028607822101488503,5.7215644202977005,0)" xlink:href="#ak"/><use transform="matrix(0.028607822101488503,0,0,0.028607822101488503,11.443128840595401,0)" xlink:href="#aj"/><use transform="matrix(0.028607822101488503,0,0,0.028607822101488503,14.30391105074425,0)" xlink:href="#ak"/><use transform="matrix(0.028607822101488503,0,0,0.028607822101488503,20.02547547104195,0)" xlink:href="#aA"/><use transform="matrix(0.028607822101488503,0,0,0.028607822101488503,25.74703989133965,0)" xlink:href="#ak"/><use transform="matrix(0.028607822101488503,0,0,0.028607822101488503,31.468604311637346,0)" xlink:href="#ao"/><use transform="matrix(0.028607822101488503,0,0,0.028607822101488503,36.61801228990528,0)" xlink:href="#ae"/></g><g id="x"><use transform="matrix(0.028607822101488503,0,0,0.028607822101488503,0,0)" xlink:href="#ap"/><use transform="matrix(0.028607822101488503,0,0,0.028607822101488503,2.8607822101488503,0)" xlink:href="#aq"/><use transform="matrix(0.028607822101488503,0,0,0.028607822101488503,8.582346630446551,0)" xlink:href="#af"/></g><g id="y"><use transform="matrix(0.028607822101488503,0,0,0.028607822101488503,0,0)" xlink:href="#au"/><use transform="matrix(0.028607822101488503,0,0,0.028607822101488503,5.7215644202977005,0)" xlink:href="#ao"/><use transform="matrix(0.028607822101488503,0,0,0.028607822101488503,10.87097239856563,0)" xlink:href="#ae"/></g><g id="z"><use transform="matrix(0.028607822101488503,0,0,0.028607822101488503,0,0)" xlink:href="#ac"/><use transform="matrix(0.028607822101488503,0,0,0.028607822101488503,2.2600179460175918,0)" xlink:href="#ai"/></g><g id="A"><use transform="matrix(0.028607822101488503,0,0,0.028607822101488503,0,0)" xlink:href="#ak"/><use transform="matrix(0.028607822101488503,0,0,0.028607822101488503,5.7215644202977005,0)" xlink:href="#ab"/><use transform="matrix(0.028607822101488503,0,0,0.028607822101488503,11.443128840595401,0)" xlink:href="#ab"/></g><g id="B"><use transform="matrix(0.028607822101488503,0,0,0.028607822101488503,0,0)" xlink:href="#aa"/><use transform="matrix(0.028607822101488503,0,0,0.028607822101488503,6.865877304357241,0)" xlink:href="#au"/><use transform="matrix(0.028607822101488503,0,0,0.028607822101488503,12.58744172465494,0)" xlink:href="#ab"/><use transform="matrix(0.028607822101488503,0,0,0.028607822101488503,18.30900614495264,0)" xlink:href="#ak"/><use transform="matrix(0.028607822101488503,0,0,0.028607822101488503,24.03057056525034,0)" xlink:href="#aA"/><use transform="matrix(0.028607822101488503,0,0,0.028607822101488503,29.752134985548036,0)" xlink:href="#ak"/><use transform="matrix(0.028607822101488503,0,0,0.028607822101488503,35.47369940584574,0)" xlink:href="#ao"/><use transform="matrix(0.028607822101488503,0,0,0.028607822101488503,40.62310738411367,0)" xlink:href="#ae"/></g><g id="C"><use transform="matrix(0.028607822101488503,0,0,0.028607822101488503,0,0)" xlink:href="#ax"/><use transform="matrix(0.028607822101488503,0,0,0.028607822101488503,7.4094259242855225,0)" xlink:href="#ak"/><use transform="matrix(0.028607822101488503,0,0,0.028607822101488503,13.130990344583223,0)" xlink:href="#aj"/><use transform="matrix(0.028607822101488503,0,0,0.028607822101488503,15.991772554732073,0)" xlink:href="#ak"/><use transform="matrix(0.028607822101488503,0,0,0.028607822101488503,21.713336975029772,0)" xlink:href="#aA"/><use transform="matrix(0.028607822101488503,0,0,0.028607822101488503,27.434901395327472,0)" xlink:href="#ak"/><use transform="matrix(0.028607822101488503,0,0,0.028607822101488503,33.156465815625175,0)" xlink:href="#ao"/><use transform="matrix(0.028607822101488503,0,0,0.028607822101488503,38.305873793893106,0)" xlink:href="#ae"/></g><g id="D"><use transform="matrix(0.028607822101488503,0,0,0.028607822101488503,0,0)" xlink:href="#ac"/><use transform="matrix(0.028607822101488503,0,0,0.028607822101488503,2.2600179460175918,0)" xlink:href="#ao"/></g><g id="E"><use transform="matrix(0.028607822101488503,0,0,0.028607822101488503,0,0)" xlink:href="#al"/><use transform="matrix(0.028607822101488503,0,0,0.028607822101488503,2.2600179460175918,0)" xlink:href="#aq"/><use transform="matrix(0.028607822101488503,0,0,0.028607822101488503,7.981582366315292,0)" xlink:href="#ak"/><use transform="matrix(0.028607822101488503,0,0,0.028607822101488503,13.703146786612994,0)" xlink:href="#ad"/><use transform="matrix(0.028607822101488503,0,0,0.028607822101488503,19.424711206910693,0)" xlink:href="#ae"/><use transform="matrix(0.028607822101488503,0,0,0.028607822101488503,25.146275627208393,0)" xlink:href="#ad"/></g><path fill="#6f7681" d="M24 0v-248h195v40H76v63h132v40H76v65h150V0H24" id="aB"/><path fill="#6f7681" d="M136-208V0H84v-208H4v-40h212v40h-80" id="aC"/><path fill="#6f7681" d="M24 0v-248h52v208h133V0H24" id="aD"/><g id="F"><use transform="matrix(0.05261820749795768,0,0,0.05261820749795768,0,0)" xlink:href="#aB"/><use transform="matrix(0.05261820749795768,0,0,0.05261820749795768,12.628369799509844,0)" xlink:href="#aC"/><use transform="matrix(0.05261820749795768,0,0,0.05261820749795768,24.151757241562578,0)" xlink:href="#aD"/></g><path fill="#6f7681" d="M24-248c93 1 206-16 204 79-1 75-69 88-152 82V0H24v-248zm52 121c47 0 100 7 100-41 0-47-54-39-100-39v80" id="aE"/><path fill="#6f7681" d="M135-150c-39-12-60 13-60 57V0H25l-1-190h47c2 13-1 29 3 40 6-28 27-53 61-41v41" id="aF"/><path fill="#6f7681" d="M110-194c64 0 96 36 96 99 0 64-35 99-97 99-61 0-95-36-95-99 0-62 34-99 96-99zm-1 164c35 0 45-28 45-65 0-40-10-65-43-65-34 0-45 26-45 65 0 36 10 65 43 65" id="aG"/><path fill="#6f7681" d="M190-63c-7 42-38 67-86 67-59 0-84-38-90-98-12-110 154-137 174-36l-49 2c-2-19-15-32-35-32-30 0-35 28-38 64-6 74 65 87 74 30" id="aH"/><path fill="#6f7681" d="M185-48c-13 30-37 53-82 52C43 2 14-33 14-96s30-98 90-98c62 0 83 45 84 108H66c0 31 8 55 39 56 18 0 30-7 34-22zm-45-69c5-46-57-63-70-21-2 6-4 13-4 21h74" id="aI"/><path fill="#6f7681" d="M137-138c1-29-70-34-71-4 15 46 118 7 119 86 1 83-164 76-172 9l43-7c4 19 20 25 44 25 33 8 57-30 24-41C81-84 22-81 20-136c-2-80 154-74 161-7" id="aJ"/><g id="G"><use transform="matrix(0.05261820749795768,0,0,0.05261820749795768,0,0)" xlink:href="#aE"/><use transform="matrix(0.05261820749795768,0,0,0.05261820749795768,12.628369799509844,0)" xlink:href="#aF"/><use transform="matrix(0.05261820749795768,0,0,0.05261820749795768,19.99491884922392,0)" xlink:href="#aG"/><use transform="matrix(0.05261820749795768,0,0,0.05261820749795768,31.51830629127665,0)" xlink:href="#aH"/><use transform="matrix(0.05261820749795768,0,0,0.05261820749795768,42.041947790868186,0)" xlink:href="#aI"/><use transform="matrix(0.05261820749795768,0,0,0.05261820749795768,52.56558929045972,0)" xlink:href="#aJ"/><use transform="matrix(0.05261820749795768,0,0,0.05261820749795768,63.089230790051246,0)" xlink:href="#aJ"/></g><g id="H"><use transform="matrix(0.028607822101488503,0,0,0.028607822101488503,0,0)" xlink:href="#aa"/><use transform="matrix(0.028607822101488503,0,0,0.028607822101488503,6.865877304357241,0)" xlink:href="#am"/><use transform="matrix(0.028607822101488503,0,0,0.028607822101488503,12.015285282625172,0)" xlink:href="#af"/><use transform="matrix(0.028607822101488503,0,0,0.028607822101488503,15.419616112702304,0)" xlink:href="#ak"/><use transform="matrix(0.028607822101488503,0,0,0.028607822101488503,21.141180533000004,0)" xlink:href="#ab"/><use transform="matrix(0.028607822101488503,0,0,0.028607822101488503,26.862744953297703,0)" xlink:href="#ae"/><use transform="matrix(0.028607822101488503,0,0,0.028607822101488503,32.5843093735954,0)" xlink:href="#ao"/></g><g id="I"><use transform="matrix(0.028607822101488503,0,0,0.028607822101488503,0,0)" xlink:href="#ad"/><use transform="matrix(0.028607822101488503,0,0,0.028607822101488503,5.7215644202977005,0)" xlink:href="#ak"/><use transform="matrix(0.028607822101488503,0,0,0.028607822101488503,11.443128840595401,0)" xlink:href="#aj"/><use transform="matrix(0.028607822101488503,0,0,0.028607822101488503,14.30391105074425,0)" xlink:href="#ak"/></g><g id="J"><use transform="matrix(0.028607822101488503,0,0,0.028607822101488503,0,0)" xlink:href="#ap"/><use transform="matrix(0.028607822101488503,0,0,0.028607822101488503,2.8607822101488503,0)" xlink:href="#af"/><use transform="matrix(0.028607822101488503,0,0,0.028607822101488503,6.265113040225982,0)" xlink:href="#aq"/><use transform="matrix(0.028607822101488503,0,0,0.028607822101488503,11.986677460523683,0)" xlink:href="#ar"/></g><path fill="#fff" d="M206 0h-36l-40-164L89 0H53L-1-190h32L70-26l43-164h34l41 164 42-164h31" id="aK"/><g id="K"><use transform="matrix(0.028607822101488503,0,0,0.028607822101488503,0,0)" xlink:href="#aK"/><use transform="matrix(0.028607822101488503,0,0,0.028607822101488503,7.4094259242855225,0)" xlink:href="#ae"/><use transform="matrix(0.028607822101488503,0,0,0.028607822101488503,13.130990344583223,0)" xlink:href="#aA"/><use transform="matrix(0.028607822101488503,0,0,0.028607822101488503,18.852554764880924,0)" xlink:href="#ao"/><use transform="matrix(0.028607822101488503,0,0,0.028607822101488503,24.001962743148855,0)" xlink:href="#ac"/><use transform="matrix(0.028607822101488503,0,0,0.028607822101488503,26.261980689166446,0)" xlink:href="#aj"/><use transform="matrix(0.028607822101488503,0,0,0.028607822101488503,29.122762899315298,0)" xlink:href="#ae"/></g></defs></g></svg>